Coordinates
version=1
nRows=9
nColumns=38
inDegrees=yes

Units are S.I. units (second, meters, Newtons, ...)
Angles are in degrees.

endheader
time	pelvis_tilt	pelvis_list	pelvis_rotation	pelvis_tx	pelvis_ty	pelvis_tz	hip_flexion_r	hip_adduction_r	hip_rotation_r	knee_angle_r	ankle_angle_r	subtalar_angle_r	mtp_angle_r	hip_flexion_l	hip_adduction_l	hip_rotation_l	knee_angle_l	ankle_angle_l	subtalar_angle_l	mtp_angle_l	lumbar_extension	lumbar_bending	lumbar_rotation	arm_flex_r	arm_add_r	arm_rot_r	elbow_flex_r	pro_sup_r	wrist_flex_r	wrist_dev_r	arm_flex_l	arm_add_l	arm_rot_l	elbow_flex_l	pro_sup_l	wrist_flex_l	wrist_dev_l
      1.55000000	     -1.16420710	      5.88637963	      1.03138416	     -0.49179490	      0.90643544	     -0.20870342	      3.03406903	     -3.98700440	     -2.09445030	    -59.03272607	    -17.82927544	    -13.20605634	     22.08480778	     22.21411237	     10.44821079	      3.49671431	    -28.18619023	      2.42840914	      0.20897262	      3.49764729	     -4.41485483	     -4.85601734	     -0.09258034	     -7.14100762	    -18.36581599	      6.55856438	     26.01562497	     86.51662706	      0.00000000	      0.00000000	     -4.82255057	    -15.70597560	     16.09227466	     22.11637810	     86.51662706	      0.00000000	      0.00000000
      1.56000000	     -1.22495819	      5.87289851	      0.55433560	     -0.48030287	      0.90782616	     -0.20815188	      5.23707427	     -3.92989209	     -1.53744802	    -61.33542408	    -17.06803736	    -14.83016095	     20.95725987	     21.31750138	     10.17440440	      2.69268538	    -27.88839050	      3.29965225	      0.91452130	      3.28457958	     -4.40032811	     -4.83878306	     -0.14501346	     -7.04001382	    -18.32603459	      7.01320594	     25.66082455	     86.51662706	      0.00000000	      0.00000000	     -4.69163196	    -15.82205008	     15.94476147	     22.44053897	     86.51662706	      0.00000000	      0.00000000
      1.57000000	     -1.28242006	      5.79588290	      0.08446977	     -0.46891446	      0.90934024	     -0.20759652	      7.41343139	     -3.77987634	     -1.04496698	    -63.27754751	    -16.12186480	    -15.97211333	     19.92871697	     20.38270500	      9.86900663	      1.99971996	    -27.52018366	      4.07909317	      1.49867430	      3.12519780	     -4.39742325	     -4.73707609	     -0.23805277	     -6.92856850	    -18.31009604	      7.45380906	     25.36321437	     86.51662706	      0.00000000	      0.00000000	     -4.56456261	    -15.93085099	     15.80779435	     22.77418464	     86.51662706	      0.00000000	      0.00000000
      1.58000000	     -1.33383001	      5.67298726	     -0.35904074	     -0.45758102	      0.91095894	     -0.20704543	      9.53131908	     -3.55883880	     -0.61861456	    -64.84588945	    -15.07751973	    -16.58528179	     19.03843624	     19.40238374	      9.56412500	      1.48378973	    -27.08689155	      4.77917707	      1.92955067	      3.01733464	     -4.40624529	     -4.57218855	     -0.37658846	     -6.83007821	    -18.30599677	      7.84769085	     25.12429223	     86.51662706	      0.00000000	      0.00000000	     -4.44289112	    -16.03327351	     15.68094599	     23.11636046	     86.51662706	      0.00000000	      0.00000000
      1.59000000	     -1.37680600	      5.51839046	     -0.75899731	     -0.44626646	      0.91263568	     -0.20651715	     11.56627005	     -3.28980027	     -0.26275276	    -66.04082778	    -13.98654422	    -16.68033769	     18.30528915	     18.37139215	      9.28274399	      1.18694604	    -26.59395684	      5.41146807	      2.18997613	      2.95521610	     -4.42678585	     -4.36315835	     -0.56388646	     -6.76365976	    -18.30380293	      8.16641118	     24.94360221	     86.51662706	      0.00000000	      0.00000000	     -4.32632271	    -16.13183475	     15.56264325	     23.46950122	     86.51662706	      0.00000000	      0.00000000
      1.60000000	     -1.40983289	      5.34199776	     -1.10140481	     -0.43495082	      0.91430761	     -0.20603685	     13.50161275	     -2.99581904	      0.01443791	    -66.86988387	    -12.87152662	    -16.32050533	     17.72941211	     17.28988811	      9.03653693	      1.12184003	    -26.04855890	      5.98509321	      2.27874846	      2.93037079	     -4.45850174	     -4.12416422	     -0.80158133	     -6.74149002	    -18.29664262	      8.38842660	     24.81815333	     86.51662706	      0.00000000	      0.00000000	     -4.21284751	    -16.23052145	     15.45063339	     23.83837325	     86.51662706	      0.00000000	      0.00000000
      1.61000000	     -1.43234033	      5.14966194	     -1.37656239	     -0.42362625	      0.91592056	     -0.20561712	     15.32728142	     -2.69811765	      0.20250051	    -67.34289274	    -11.73833369	    -15.60934853	     17.29529181	     16.16473599	      8.82695992	      1.27177694	    -25.46032925	      6.50670427	      2.21047908	      2.93271106	     -4.50035483	     -3.86402553	     -1.08941942	     -6.76770883	    -18.28098776	      8.50082943	     24.74213140	     86.51662706	      0.00000000	      0.00000000	     -4.09923497	    -16.33400041	     15.34233267	     24.22871678	     86.51662706	      0.00000000	      0.00000000
      1.62000000	     -1.44465205	      4.94432224	     -1.57991122	     -0.41228671	      0.91744693	     -0.20525674	     17.03776162	     -2.41410342	      0.29186122	    -67.46941538	    -10.58929282	    -14.67445309	     16.97592354	     15.00814861	      8.64823513	      1.59594760	    -24.84088430	      6.98149758	      2.01378024	      2.95162835	     -4.55119218	     -3.58747910	     -1.42504486	     -6.83901282	    -18.25618168	      8.50001818	     24.70700225	     86.51662706	      0.00000000	      0.00000000	     -3.98174297	    -16.44667137	     15.23504511	     24.64590077	     86.51662706	      0.00000000	      0.00000000
      1.63000000	     -1.44760522	      4.72802798	     -1.71229028	     -0.40092869	      0.91887577	     -0.20495654	     18.63009325	     -2.15630158	      0.27730510	    -67.25786769	     -9.43326514	    -13.65037447	     16.73753804	     13.83403428	      8.49034699	      2.03842018	    -24.20232069	      7.41468706	      1.72778924	      2.97699630	     -4.61022302	     -3.29745619	     -1.80399931	     -6.94662562	    -18.22337407	      8.39130629	     24.70200826	     86.51662706	      0.00000000	      0.00000000	     -3.85684175	    -16.57192334	     15.12607550	     25.09385647	     86.51662706	      0.00000000	      0.00000000
